<svg xmlns="http://www.w3.org/2000/svg" xmlns:xlink="http://www.w3.org/1999/xlink" width="500" zoomAndPan="magnify" viewBox="0 0 375 374.999991" height="500" preserveAspectRatio="xMidYMid meet" version="1.0"><defs><g/><clipPath id="289081bc1d"><path d="M 0 6 L 230 6 L 230 375 L 0 375 Z M 0 6 " clip-rule="nonzero"/></clipPath><clipPath id="b79924ef26"><path d="M 229.058594 204.859375 L -68.085938 6.242188 L -68.085938 403.476562 L 229.058594 204.859375 " clip-rule="nonzero"/></clipPath><clipPath id="2d82c41b8f"><path d="M 148.792969 108 L 294 108 L 294 301.710938 L 148.792969 301.710938 Z M 148.792969 108 " clip-rule="nonzero"/></clipPath><clipPath id="9a974169a3"><path d="M 293.691406 204.859375 L 148.792969 108.007812 L 148.792969 301.710938 L 293.691406 204.859375 " clip-rule="nonzero"/></clipPath></defs><rect x="-37.5" width="450" fill="#ffffff" y="-37.499999" height="449.999989" fill-opacity="1"/><rect x="-37.5" width="450" fill="#ffffff" y="-37.499999" height="449.999989" fill-opacity="1"/><rect x="-37.5" width="450" fill="#71619d" y="-37.499999" height="449.999989" fill-opacity="1"/><g clip-path="url(#289081bc1d)"><g clip-path="url(#b79924ef26)"><path fill="#00a79d" d="M -68.085938 403.476562 L -68.085938 4.273438 L 231.316406 4.273438 L 231.316406 403.476562 Z M -68.085938 403.476562 " fill-opacity="1" fill-rule="nonzero"/></g></g><g clip-path="url(#2d82c41b8f)"><g clip-path="url(#9a974169a3)"><path fill="#ffde17" d="M 148.792969 301.710938 L 148.792969 107.046875 L 294.792969 107.046875 L 294.792969 301.710938 Z M 148.792969 301.710938 " fill-opacity="1" fill-rule="nonzero"/></g></g><g fill="#050505" fill-opacity="1"><g transform="translate(0.0000045, 134.497902)"><g><path d="M 3.953125 0 C 3.691406 0 3.488281 -0.078125 3.34375 -0.234375 C 3.195312 -0.390625 3.125 -0.585938 3.125 -0.828125 L 3.125 -24.34375 C 3.125 -24.601562 3.195312 -24.8125 3.34375 -24.96875 C 3.488281 -25.125 3.691406 -25.203125 3.953125 -25.203125 L 12.125 -25.203125 C 14.601562 -25.203125 16.597656 -24.828125 18.109375 -24.078125 C 19.617188 -23.335938 20.722656 -22.238281 21.421875 -20.78125 C 22.117188 -19.332031 22.476562 -17.550781 22.5 -15.4375 C 22.519531 -14.363281 22.53125 -13.414062 22.53125 -12.59375 C 22.53125 -11.78125 22.519531 -10.847656 22.5 -9.796875 C 22.445312 -7.585938 22.078125 -5.753906 21.390625 -4.296875 C 20.710938 -2.847656 19.632812 -1.769531 18.15625 -1.0625 C 16.6875 -0.351562 14.738281 0 12.3125 0 Z M 6.65625 -3.0625 L 12.125 -3.0625 C 13.78125 -3.0625 15.097656 -3.285156 16.078125 -3.734375 C 17.066406 -4.191406 17.785156 -4.925781 18.234375 -5.9375 C 18.679688 -6.945312 18.914062 -8.28125 18.9375 -9.9375 C 18.988281 -10.65625 19.015625 -11.285156 19.015625 -11.828125 C 19.015625 -12.367188 19.015625 -12.90625 19.015625 -13.4375 C 19.015625 -13.976562 18.988281 -14.597656 18.9375 -15.296875 C 18.882812 -17.628906 18.332031 -19.351562 17.28125 -20.46875 C 16.226562 -21.582031 14.453125 -22.140625 11.953125 -22.140625 L 6.65625 -22.140625 Z M 6.65625 -3.0625 "/></g></g></g><g fill="#050505" fill-opacity="1"><g transform="translate(24.804053, 134.497902)"><g><path d="M 3.953125 0 C 3.691406 0 3.488281 -0.078125 3.34375 -0.234375 C 3.195312 -0.390625 3.125 -0.585938 3.125 -0.828125 L 3.125 -24.375 C 3.125 -24.613281 3.195312 -24.8125 3.34375 -24.96875 C 3.488281 -25.125 3.691406 -25.203125 3.953125 -25.203125 L 5.875 -25.203125 C 6.132812 -25.203125 6.335938 -25.125 6.484375 -24.96875 C 6.628906 -24.8125 6.703125 -24.613281 6.703125 -24.375 L 6.703125 -0.828125 C 6.703125 -0.585938 6.628906 -0.390625 6.484375 -0.234375 C 6.335938 -0.078125 6.132812 0 5.875 0 Z M 3.953125 0 "/></g></g></g><g fill="#050505" fill-opacity="1"><g transform="translate(34.632067, 134.497902)"><g><path d="M 1.625 0 C 1.425781 0 1.25 -0.0703125 1.09375 -0.21875 C 0.9375 -0.363281 0.859375 -0.53125 0.859375 -0.71875 C 0.859375 -0.8125 0.875 -0.898438 0.90625 -0.984375 C 0.945312 -1.066406 0.984375 -1.132812 1.015625 -1.1875 L 9.25 -12.8125 L 1.40625 -24.015625 C 1.332031 -24.160156 1.296875 -24.316406 1.296875 -24.484375 C 1.296875 -24.671875 1.367188 -24.835938 1.515625 -24.984375 C 1.660156 -25.128906 1.828125 -25.203125 2.015625 -25.203125 L 4.171875 -25.203125 C 4.410156 -25.203125 4.601562 -25.144531 4.75 -25.03125 C 4.894531 -24.925781 5.023438 -24.78125 5.140625 -24.59375 L 11.484375 -15.59375 L 17.78125 -24.59375 C 17.875 -24.78125 18 -24.925781 18.15625 -25.03125 C 18.3125 -25.144531 18.5 -25.203125 18.71875 -25.203125 L 20.765625 -25.203125 C 20.960938 -25.203125 21.128906 -25.128906 21.265625 -24.984375 C 21.410156 -24.835938 21.484375 -24.671875 21.484375 -24.484375 C 21.484375 -24.316406 21.4375 -24.160156 21.34375 -24.015625 L 13.609375 -12.78125 L 21.8125 -1.1875 C 21.863281 -1.132812 21.898438 -1.066406 21.921875 -0.984375 C 21.941406 -0.898438 21.953125 -0.8125 21.953125 -0.71875 C 21.953125 -0.53125 21.878906 -0.363281 21.734375 -0.21875 C 21.597656 -0.0703125 21.421875 0 21.203125 0 L 19.015625 0 C 18.796875 0 18.609375 -0.0546875 18.453125 -0.171875 C 18.296875 -0.296875 18.15625 -0.441406 18.03125 -0.609375 L 11.34375 -9.9375 L 4.6875 -0.609375 C 4.5625 -0.441406 4.425781 -0.296875 4.28125 -0.171875 C 4.132812 -0.0546875 3.957031 0 3.75 0 Z M 1.625 0 "/></g></g></g><g fill="#050505" fill-opacity="1"><g transform="translate(0.0000045, 170.497899)"><g><path d="M 2.59375 0 C 2.351562 0 2.15625 -0.078125 2 -0.234375 C 1.84375 -0.390625 1.765625 -0.585938 1.765625 -0.828125 L 1.765625 -1.984375 C 1.765625 -2.191406 1.820312 -2.425781 1.9375 -2.6875 C 2.0625 -2.957031 2.300781 -3.25 2.65625 -3.5625 L 10.296875 -11.203125 C 11.515625 -12.234375 12.476562 -13.113281 13.1875 -13.84375 C 13.894531 -14.570312 14.398438 -15.269531 14.703125 -15.9375 C 15.003906 -16.613281 15.15625 -17.3125 15.15625 -18.03125 C 15.15625 -19.40625 14.769531 -20.492188 14 -21.296875 C 13.238281 -22.097656 12.097656 -22.5 10.578125 -22.5 C 9.617188 -22.5 8.789062 -22.300781 8.09375 -21.90625 C 7.40625 -21.507812 6.867188 -20.96875 6.484375 -20.28125 C 6.097656 -19.601562 5.832031 -18.832031 5.6875 -17.96875 C 5.632812 -17.65625 5.503906 -17.4375 5.296875 -17.3125 C 5.097656 -17.195312 4.914062 -17.140625 4.75 -17.140625 L 2.875 -17.140625 C 2.664062 -17.140625 2.488281 -17.203125 2.34375 -17.328125 C 2.195312 -17.460938 2.125 -17.625 2.125 -17.8125 C 2.144531 -18.726562 2.332031 -19.644531 2.6875 -20.5625 C 3.050781 -21.488281 3.585938 -22.332031 4.296875 -23.09375 C 5.003906 -23.851562 5.878906 -24.457031 6.921875 -24.90625 C 7.972656 -25.363281 9.191406 -25.59375 10.578125 -25.59375 C 12.472656 -25.59375 14.023438 -25.25 15.234375 -24.5625 C 16.453125 -23.882812 17.347656 -22.976562 17.921875 -21.84375 C 18.503906 -20.71875 18.796875 -19.484375 18.796875 -18.140625 C 18.796875 -17.085938 18.613281 -16.125 18.25 -15.25 C 17.894531 -14.375 17.375 -13.519531 16.6875 -12.6875 C 16 -11.863281 15.148438 -11.019531 14.140625 -10.15625 L 7.234375 -3.125 L 18.46875 -3.125 C 18.726562 -3.125 18.9375 -3.050781 19.09375 -2.90625 C 19.25 -2.769531 19.328125 -2.566406 19.328125 -2.296875 L 19.328125 -0.828125 C 19.328125 -0.585938 19.25 -0.390625 19.09375 -0.234375 C 18.9375 -0.078125 18.726562 0 18.46875 0 Z M 2.59375 0 "/></g></g></g><g fill="#050505" fill-opacity="1"><g transform="translate(21.132045, 170.497899)"><g><path d="M 2.59375 0 C 2.351562 0 2.15625 -0.078125 2 -0.234375 C 1.84375 -0.390625 1.765625 -0.585938 1.765625 -0.828125 L 1.765625 -1.984375 C 1.765625 -2.191406 1.820312 -2.425781 1.9375 -2.6875 C 2.0625 -2.957031 2.300781 -3.25 2.65625 -3.5625 L 10.296875 -11.203125 C 11.515625 -12.234375 12.476562 -13.113281 13.1875 -13.84375 C 13.894531 -14.570312 14.398438 -15.269531 14.703125 -15.9375 C 15.003906 -16.613281 15.15625 -17.3125 15.15625 -18.03125 C 15.15625 -19.40625 14.769531 -20.492188 14 -21.296875 C 13.238281 -22.097656 12.097656 -22.5 10.578125 -22.5 C 9.617188 -22.5 8.789062 -22.300781 8.09375 -21.90625 C 7.40625 -21.507812 6.867188 -20.96875 6.484375 -20.28125 C 6.097656 -19.601562 5.832031 -18.832031 5.6875 -17.96875 C 5.632812 -17.65625 5.503906 -17.4375 5.296875 -17.3125 C 5.097656 -17.195312 4.914062 -17.140625 4.75 -17.140625 L 2.875 -17.140625 C 2.664062 -17.140625 2.488281 -17.203125 2.34375 -17.328125 C 2.195312 -17.460938 2.125 -17.625 2.125 -17.8125 C 2.144531 -18.726562 2.332031 -19.644531 2.6875 -20.5625 C 3.050781 -21.488281 3.585938 -22.332031 4.296875 -23.09375 C 5.003906 -23.851562 5.878906 -24.457031 6.921875 -24.90625 C 7.972656 -25.363281 9.191406 -25.59375 10.578125 -25.59375 C 12.472656 -25.59375 14.023438 -25.25 15.234375 -24.5625 C 16.453125 -23.882812 17.347656 -22.976562 17.921875 -21.84375 C 18.503906 -20.71875 18.796875 -19.484375 18.796875 -18.140625 C 18.796875 -17.085938 18.613281 -16.125 18.25 -15.25 C 17.894531 -14.375 17.375 -13.519531 16.6875 -12.6875 C 16 -11.863281 15.148438 -11.019531 14.140625 -10.15625 L 7.234375 -3.125 L 18.46875 -3.125 C 18.726562 -3.125 18.9375 -3.050781 19.09375 -2.90625 C 19.25 -2.769531 19.328125 -2.566406 19.328125 -2.296875 L 19.328125 -0.828125 C 19.328125 -0.585938 19.25 -0.390625 19.09375 -0.234375 C 18.9375 -0.078125 18.726562 0 18.46875 0 Z M 2.59375 0 "/></g></g></g><g fill="#050505" fill-opacity="1"><g transform="translate(42.264086, 170.497899)"><g><path d="M 1.65625 3.03125 C 1.46875 3.03125 1.300781 2.957031 1.15625 2.8125 C 1.007812 2.664062 0.9375 2.492188 0.9375 2.296875 C 0.9375 2.179688 0.972656 2.039062 1.046875 1.875 L 13.359375 -27.640625 C 13.429688 -27.785156 13.53125 -27.929688 13.65625 -28.078125 C 13.789062 -28.222656 14.003906 -28.296875 14.296875 -28.296875 L 15.703125 -28.296875 C 15.890625 -28.296875 16.054688 -28.222656 16.203125 -28.078125 C 16.347656 -27.929688 16.421875 -27.765625 16.421875 -27.578125 C 16.421875 -27.484375 16.394531 -27.335938 16.34375 -27.140625 L 4 2.375 C 3.945312 2.5 3.847656 2.640625 3.703125 2.796875 C 3.554688 2.953125 3.34375 3.03125 3.0625 3.03125 Z M 1.65625 3.03125 "/></g></g></g><g fill="#050505" fill-opacity="1"><g transform="translate(59.61612, 170.497899)"><g><path d="M 2.59375 0 C 2.351562 0 2.15625 -0.078125 2 -0.234375 C 1.84375 -0.390625 1.765625 -0.585938 1.765625 -0.828125 L 1.765625 -1.984375 C 1.765625 -2.191406 1.820312 -2.425781 1.9375 -2.6875 C 2.0625 -2.957031 2.300781 -3.25 2.65625 -3.5625 L 10.296875 -11.203125 C 11.515625 -12.234375 12.476562 -13.113281 13.1875 -13.84375 C 13.894531 -14.570312 14.398438 -15.269531 14.703125 -15.9375 C 15.003906 -16.613281 15.15625 -17.3125 15.15625 -18.03125 C 15.15625 -19.40625 14.769531 -20.492188 14 -21.296875 C 13.238281 -22.097656 12.097656 -22.5 10.578125 -22.5 C 9.617188 -22.5 8.789062 -22.300781 8.09375 -21.90625 C 7.40625 -21.507812 6.867188 -20.96875 6.484375 -20.28125 C 6.097656 -19.601562 5.832031 -18.832031 5.6875 -17.96875 C 5.632812 -17.65625 5.503906 -17.4375 5.296875 -17.3125 C 5.097656 -17.195312 4.914062 -17.140625 4.75 -17.140625 L 2.875 -17.140625 C 2.664062 -17.140625 2.488281 -17.203125 2.34375 -17.328125 C 2.195312 -17.460938 2.125 -17.625 2.125 -17.8125 C 2.144531 -18.726562 2.332031 -19.644531 2.6875 -20.5625 C 3.050781 -21.488281 3.585938 -22.332031 4.296875 -23.09375 C 5.003906 -23.851562 5.878906 -24.457031 6.921875 -24.90625 C 7.972656 -25.363281 9.191406 -25.59375 10.578125 -25.59375 C 12.472656 -25.59375 14.023438 -25.25 15.234375 -24.5625 C 16.453125 -23.882812 17.347656 -22.976562 17.921875 -21.84375 C 18.503906 -20.71875 18.796875 -19.484375 18.796875 -18.140625 C 18.796875 -17.085938 18.613281 -16.125 18.25 -15.25 C 17.894531 -14.375 17.375 -13.519531 16.6875 -12.6875 C 16 -11.863281 15.148438 -11.019531 14.140625 -10.15625 L 7.234375 -3.125 L 18.46875 -3.125 C 18.726562 -3.125 18.9375 -3.050781 19.09375 -2.90625 C 19.25 -2.769531 19.328125 -2.566406 19.328125 -2.296875 L 19.328125 -0.828125 C 19.328125 -0.585938 19.25 -0.390625 19.09375 -0.234375 C 18.9375 -0.078125 18.726562 0 18.46875 0 Z M 2.59375 0 "/></g></g></g><g fill="#050505" fill-opacity="1"><g transform="translate(80.74816, 170.497899)"><g><path d="M 10.734375 0.359375 C 9.210938 0.359375 7.890625 0.175781 6.765625 -0.1875 C 5.640625 -0.5625 4.691406 -1.0625 3.921875 -1.6875 C 3.148438 -2.3125 2.566406 -3 2.171875 -3.75 C 1.773438 -4.507812 1.566406 -5.273438 1.546875 -6.046875 C 1.546875 -6.265625 1.617188 -6.4375 1.765625 -6.5625 C 1.910156 -6.695312 2.085938 -6.765625 2.296875 -6.765625 L 4.0625 -6.765625 C 4.28125 -6.765625 4.476562 -6.707031 4.65625 -6.59375 C 4.84375 -6.488281 4.984375 -6.28125 5.078125 -5.96875 C 5.316406 -5.113281 5.726562 -4.441406 6.3125 -3.953125 C 6.90625 -3.472656 7.59375 -3.144531 8.375 -2.96875 C 9.15625 -2.789062 9.941406 -2.703125 10.734375 -2.703125 C 12.390625 -2.703125 13.734375 -3.097656 14.765625 -3.890625 C 15.796875 -4.679688 16.3125 -5.84375 16.3125 -7.375 C 16.3125 -8.9375 15.84375 -10.050781 14.90625 -10.71875 C 13.96875 -11.394531 12.671875 -11.734375 11.015625 -11.734375 L 7.59375 -11.734375 C 7.351562 -11.734375 7.15625 -11.804688 7 -11.953125 C 6.84375 -12.097656 6.765625 -12.300781 6.765625 -12.5625 L 6.765625 -13.53125 C 6.765625 -13.75 6.804688 -13.9375 6.890625 -14.09375 C 6.972656 -14.25 7.0625 -14.390625 7.15625 -14.515625 L 14.140625 -22.140625 L 3.53125 -22.140625 C 3.289062 -22.140625 3.09375 -22.210938 2.9375 -22.359375 C 2.78125 -22.503906 2.703125 -22.707031 2.703125 -22.96875 L 2.703125 -24.34375 C 2.703125 -24.601562 2.78125 -24.8125 2.9375 -24.96875 C 3.09375 -25.125 3.289062 -25.203125 3.53125 -25.203125 L 17.890625 -25.203125 C 18.148438 -25.203125 18.359375 -25.125 18.515625 -24.96875 C 18.671875 -24.8125 18.75 -24.601562 18.75 -24.34375 L 18.75 -23.046875 C 18.75 -22.867188 18.707031 -22.710938 18.625 -22.578125 C 18.539062 -22.453125 18.453125 -22.332031 18.359375 -22.21875 L 11.40625 -14.46875 L 11.984375 -14.4375 C 13.566406 -14.382812 14.953125 -14.09375 16.140625 -13.5625 C 17.328125 -13.039062 18.25 -12.253906 18.90625 -11.203125 C 19.570312 -10.160156 19.90625 -8.847656 19.90625 -7.265625 C 19.90625 -5.660156 19.507812 -4.289062 18.71875 -3.15625 C 17.925781 -2.03125 16.835938 -1.160156 15.453125 -0.546875 C 14.078125 0.0546875 12.503906 0.359375 10.734375 0.359375 Z M 10.734375 0.359375 "/></g></g></g><g fill="#050505" fill-opacity="1"><g transform="translate(0.0000045, 242.497894)"><g><path d="M 1.4375 0 C 1.25 0 1.082031 -0.0703125 0.9375 -0.21875 C 0.789062 -0.363281 0.71875 -0.53125 0.71875 -0.71875 C 0.71875 -0.84375 0.726562 -0.972656 0.75 -1.109375 L 9.6875 -24.40625 C 9.78125 -24.644531 9.910156 -24.835938 10.078125 -24.984375 C 10.242188 -25.128906 10.5 -25.203125 10.84375 -25.203125 L 13.28125 -25.203125 C 13.613281 -25.203125 13.863281 -25.128906 14.03125 -24.984375 C 14.207031 -24.835938 14.34375 -24.644531 14.4375 -24.40625 L 23.328125 -1.109375 C 23.378906 -0.972656 23.40625 -0.84375 23.40625 -0.71875 C 23.40625 -0.53125 23.332031 -0.363281 23.1875 -0.21875 C 23.039062 -0.0703125 22.875 0 22.6875 0 L 20.84375 0 C 20.550781 0 20.335938 -0.0703125 20.203125 -0.21875 C 20.078125 -0.363281 19.988281 -0.492188 19.9375 -0.609375 L 17.96875 -5.71875 L 6.15625 -5.71875 L 4.171875 -0.609375 C 4.148438 -0.492188 4.066406 -0.363281 3.921875 -0.21875 C 3.773438 -0.0703125 3.5625 0 3.28125 0 Z M 7.203125 -8.8125 L 16.921875 -8.8125 L 12.0625 -21.59375 Z M 7.203125 -8.8125 "/></g></g></g><g fill="#050505" fill-opacity="1"><g transform="translate(24.120052, 242.497894)"><g><path d="M 3.953125 0 C 3.691406 0 3.488281 -0.078125 3.34375 -0.234375 C 3.195312 -0.390625 3.125 -0.585938 3.125 -0.828125 L 3.125 -24.375 C 3.125 -24.613281 3.195312 -24.8125 3.34375 -24.96875 C 3.488281 -25.125 3.691406 -25.203125 3.953125 -25.203125 L 5.875 -25.203125 C 6.113281 -25.203125 6.3125 -25.125 6.46875 -24.96875 C 6.625 -24.8125 6.703125 -24.613281 6.703125 -24.375 L 6.703125 -3.125 L 18.640625 -3.125 C 18.910156 -3.125 19.125 -3.046875 19.28125 -2.890625 C 19.4375 -2.734375 19.515625 -2.523438 19.515625 -2.265625 L 19.515625 -0.828125 C 19.515625 -0.585938 19.4375 -0.390625 19.28125 -0.234375 C 19.125 -0.078125 18.910156 0 18.640625 0 Z M 3.953125 0 "/></g></g></g><g fill="#050505" fill-opacity="1"><g transform="translate(44.388086, 242.497894)"><g><path d="M 11.234375 0.359375 C 9.140625 0.359375 7.382812 0.0351562 5.96875 -0.609375 C 4.5625 -1.253906 3.476562 -2.085938 2.71875 -3.109375 C 1.957031 -4.128906 1.554688 -5.207031 1.515625 -6.34375 C 1.515625 -6.53125 1.59375 -6.703125 1.75 -6.859375 C 1.90625 -7.015625 2.085938 -7.09375 2.296875 -7.09375 L 4.140625 -7.09375 C 4.429688 -7.09375 4.644531 -7.019531 4.78125 -6.875 C 4.925781 -6.726562 5.023438 -6.5625 5.078125 -6.375 C 5.222656 -5.800781 5.519531 -5.226562 5.96875 -4.65625 C 6.425781 -4.09375 7.082031 -3.625 7.9375 -3.25 C 8.789062 -2.882812 9.890625 -2.703125 11.234375 -2.703125 C 13.296875 -2.703125 14.8125 -3.066406 15.78125 -3.796875 C 16.757812 -4.523438 17.25 -5.503906 17.25 -6.734375 C 17.25 -7.566406 16.988281 -8.242188 16.46875 -8.765625 C 15.957031 -9.285156 15.171875 -9.75 14.109375 -10.15625 C 13.054688 -10.5625 11.691406 -11.003906 10.015625 -11.484375 C 8.253906 -11.984375 6.796875 -12.535156 5.640625 -13.140625 C 4.492188 -13.742188 3.640625 -14.488281 3.078125 -15.375 C 2.515625 -16.257812 2.234375 -17.382812 2.234375 -18.75 C 2.234375 -20.050781 2.578125 -21.210938 3.265625 -22.234375 C 3.960938 -23.253906 4.972656 -24.0625 6.296875 -24.65625 C 7.617188 -25.257812 9.203125 -25.5625 11.046875 -25.5625 C 12.535156 -25.5625 13.835938 -25.363281 14.953125 -24.96875 C 16.066406 -24.570312 16.992188 -24.039062 17.734375 -23.375 C 18.484375 -22.71875 19.050781 -22.007812 19.4375 -21.25 C 19.820312 -20.5 20.023438 -19.765625 20.046875 -19.046875 C 20.046875 -18.878906 19.984375 -18.71875 19.859375 -18.5625 C 19.742188 -18.40625 19.554688 -18.328125 19.296875 -18.328125 L 17.390625 -18.328125 C 17.222656 -18.328125 17.046875 -18.375 16.859375 -18.46875 C 16.679688 -18.5625 16.546875 -18.742188 16.453125 -19.015625 C 16.304688 -19.992188 15.753906 -20.816406 14.796875 -21.484375 C 13.835938 -22.160156 12.585938 -22.5 11.046875 -22.5 C 9.492188 -22.5 8.226562 -22.195312 7.25 -21.59375 C 6.28125 -21 5.796875 -20.066406 5.796875 -18.796875 C 5.796875 -17.972656 6.019531 -17.289062 6.46875 -16.75 C 6.925781 -16.21875 7.644531 -15.742188 8.625 -15.328125 C 9.613281 -14.921875 10.898438 -14.492188 12.484375 -14.046875 C 14.410156 -13.515625 15.984375 -12.953125 17.203125 -12.359375 C 18.429688 -11.773438 19.335938 -11.046875 19.921875 -10.171875 C 20.515625 -9.296875 20.8125 -8.171875 20.8125 -6.796875 C 20.8125 -5.285156 20.414062 -3.992188 19.625 -2.921875 C 18.832031 -1.859375 17.71875 -1.046875 16.28125 -0.484375 C 14.851562 0.078125 13.171875 0.359375 11.234375 0.359375 Z M 11.234375 0.359375 "/></g></g></g><g fill="#050505" fill-opacity="1"><g transform="translate(66.780133, 242.497894)"><g><path d="M 3.3125 -9.28125 C 3.070312 -9.28125 2.875 -9.359375 2.71875 -9.515625 C 2.5625 -9.671875 2.484375 -9.867188 2.484375 -10.109375 L 2.484375 -11.484375 C 2.484375 -11.722656 2.5625 -11.921875 2.71875 -12.078125 C 2.875 -12.234375 3.070312 -12.3125 3.3125 -12.3125 L 14.109375 -12.3125 C 14.378906 -12.3125 14.582031 -12.234375 14.71875 -12.078125 C 14.863281 -11.921875 14.9375 -11.722656 14.9375 -11.484375 L 14.9375 -10.109375 C 14.9375 -9.867188 14.863281 -9.671875 14.71875 -9.515625 C 14.582031 -9.359375 14.378906 -9.28125 14.109375 -9.28125 Z M 3.3125 -9.28125 "/></g></g></g><g fill="#050505" fill-opacity="1"><g transform="translate(0.0000045, 278.497892)"><g><path d="M 3.953125 0 C 3.710938 0 3.515625 -0.078125 3.359375 -0.234375 C 3.203125 -0.390625 3.125 -0.585938 3.125 -0.828125 L 3.125 -24.34375 C 3.125 -24.601562 3.203125 -24.8125 3.359375 -24.96875 C 3.515625 -25.125 3.710938 -25.203125 3.953125 -25.203125 L 5.765625 -25.203125 C 6.046875 -25.203125 6.257812 -25.128906 6.40625 -24.984375 C 6.550781 -24.835938 6.648438 -24.71875 6.703125 -24.625 L 14.296875 -10.078125 L 21.953125 -24.625 C 22.003906 -24.71875 22.09375 -24.835938 22.21875 -24.984375 C 22.351562 -25.128906 22.566406 -25.203125 22.859375 -25.203125 L 24.625 -25.203125 C 24.882812 -25.203125 25.09375 -25.125 25.25 -24.96875 C 25.40625 -24.8125 25.484375 -24.601562 25.484375 -24.34375 L 25.484375 -0.828125 C 25.484375 -0.585938 25.40625 -0.390625 25.25 -0.234375 C 25.09375 -0.078125 24.882812 0 24.625 0 L 22.859375 0 C 22.617188 0 22.421875 -0.078125 22.265625 -0.234375 C 22.109375 -0.390625 22.03125 -0.585938 22.03125 -0.828125 L 22.03125 -18.546875 L 16.015625 -6.796875 C 15.921875 -6.554688 15.773438 -6.367188 15.578125 -6.234375 C 15.390625 -6.109375 15.15625 -6.046875 14.875 -6.046875 L 13.75 -6.046875 C 13.4375 -6.046875 13.195312 -6.109375 13.03125 -6.234375 C 12.863281 -6.367188 12.71875 -6.554688 12.59375 -6.796875 L 6.546875 -18.546875 L 6.546875 -0.828125 C 6.546875 -0.585938 6.46875 -0.390625 6.3125 -0.234375 C 6.15625 -0.078125 5.957031 0 5.71875 0 Z M 3.953125 0 "/></g></g></g><g fill="#050505" fill-opacity="1"><g transform="translate(28.58406, 278.497892)"><g><path d="M 3.953125 0 C 3.691406 0 3.488281 -0.078125 3.34375 -0.234375 C 3.195312 -0.390625 3.125 -0.585938 3.125 -0.828125 L 3.125 -24.34375 C 3.125 -24.601562 3.195312 -24.8125 3.34375 -24.96875 C 3.488281 -25.125 3.691406 -25.203125 3.953125 -25.203125 L 5.609375 -25.203125 C 5.898438 -25.203125 6.117188 -25.132812 6.265625 -25 C 6.410156 -24.863281 6.492188 -24.765625 6.515625 -24.703125 L 18.46875 -6.34375 L 18.46875 -24.34375 C 18.46875 -24.601562 18.539062 -24.8125 18.6875 -24.96875 C 18.832031 -25.125 19.035156 -25.203125 19.296875 -25.203125 L 21.03125 -25.203125 C 21.289062 -25.203125 21.5 -25.125 21.65625 -24.96875 C 21.8125 -24.8125 21.890625 -24.601562 21.890625 -24.34375 L 21.890625 -0.859375 C 21.890625 -0.617188 21.8125 -0.414062 21.65625 -0.25 C 21.5 -0.0820312 21.300781 0 21.0625 0 L 19.328125 0 C 19.066406 0 18.867188 -0.0703125 18.734375 -0.21875 C 18.609375 -0.363281 18.519531 -0.457031 18.46875 -0.5 L 6.546875 -18.6875 L 6.546875 -0.828125 C 6.546875 -0.585938 6.46875 -0.390625 6.3125 -0.234375 C 6.15625 -0.078125 5.945312 0 5.6875 0 Z M 3.953125 0 "/></g></g></g><g fill="#050505" fill-opacity="1"><g transform="translate(53.604104, 278.497892)"><g><path d="M 3.953125 0 C 3.691406 0 3.488281 -0.078125 3.34375 -0.234375 C 3.195312 -0.390625 3.125 -0.585938 3.125 -0.828125 L 3.125 -24.34375 C 3.125 -24.601562 3.195312 -24.8125 3.34375 -24.96875 C 3.488281 -25.125 3.691406 -25.203125 3.953125 -25.203125 L 12.125 -25.203125 C 14.601562 -25.203125 16.597656 -24.828125 18.109375 -24.078125 C 19.617188 -23.335938 20.722656 -22.238281 21.421875 -20.78125 C 22.117188 -19.332031 22.476562 -17.550781 22.5 -15.4375 C 22.519531 -14.363281 22.53125 -13.414062 22.53125 -12.59375 C 22.53125 -11.78125 22.519531 -10.847656 22.5 -9.796875 C 22.445312 -7.585938 22.078125 -5.753906 21.390625 -4.296875 C 20.710938 -2.847656 19.632812 -1.769531 18.15625 -1.0625 C 16.6875 -0.351562 14.738281 0 12.3125 0 Z M 6.65625 -3.0625 L 12.125 -3.0625 C 13.78125 -3.0625 15.097656 -3.285156 16.078125 -3.734375 C 17.066406 -4.191406 17.785156 -4.925781 18.234375 -5.9375 C 18.679688 -6.945312 18.914062 -8.28125 18.9375 -9.9375 C 18.988281 -10.65625 19.015625 -11.285156 19.015625 -11.828125 C 19.015625 -12.367188 19.015625 -12.90625 19.015625 -13.4375 C 19.015625 -13.976562 18.988281 -14.597656 18.9375 -15.296875 C 18.882812 -17.628906 18.332031 -19.351562 17.28125 -20.46875 C 16.226562 -21.582031 14.453125 -22.140625 11.953125 -22.140625 L 6.65625 -22.140625 Z M 6.65625 -3.0625 "/></g></g></g></svg>