<svg xmlns="http://www.w3.org/2000/svg" xmlns:xlink="http://www.w3.org/1999/xlink" width="500" zoomAndPan="magnify" viewBox="0 0 375 374.999991" height="500" preserveAspectRatio="xMidYMid meet" version="1.0"><defs><clipPath id="027402f2ea"><path d="M 0 6 L 230 6 L 230 375 L 0 375 Z M 0 6 " clip-rule="nonzero"/></clipPath><clipPath id="3c5c3a6ddc"><path d="M 229.058594 204.859375 L -68.085938 6.242188 L -68.085938 403.476562 L 229.058594 204.859375 " clip-rule="nonzero"/></clipPath><clipPath id="0bd12943c4"><path d="M 148.792969 108 L 294 108 L 294 301.710938 L 148.792969 301.710938 Z M 148.792969 108 " clip-rule="nonzero"/></clipPath><clipPath id="ac757a0f59"><path d="M 293.691406 204.859375 L 148.792969 108.007812 L 148.792969 301.710938 L 293.691406 204.859375 " clip-rule="nonzero"/></clipPath></defs><rect x="-37.5" width="450" fill="#ffffff" y="-37.499999" height="449.999989" fill-opacity="1"/><rect x="-37.5" width="450" fill="#ffffff" y="-37.499999" height="449.999989" fill-opacity="1"/><rect x="-37.5" width="450" fill="#71619d" y="-37.499999" height="449.999989" fill-opacity="1"/><g clip-path="url(#027402f2ea)"><g clip-path="url(#3c5c3a6ddc)"><path fill="#00a79d" d="M -68.085938 403.476562 L -68.085938 4.273438 L 231.316406 4.273438 L 231.316406 403.476562 Z M -68.085938 403.476562 " fill-opacity="1" fill-rule="nonzero"/></g></g><g clip-path="url(#0bd12943c4)"><g clip-path="url(#ac757a0f59)"><path fill="#ffde17" d="M 148.792969 301.710938 L 148.792969 107.046875 L 294.792969 107.046875 L 294.792969 301.710938 Z M 148.792969 301.710938 " fill-opacity="1" fill-rule="nonzero"/></g></g></svg>